<svg width="335" height="40" viewBox="0 0 335 40" fill="none" xmlns="http://www.w3.org/2000/svg">
<path d="M37.3071 10.0886V14.0121L20.5388 20.5234V20.6069L37.3071 27.1182V31.0416L16.5028 22.6938V18.4364L37.3071 10.0886ZM48.4329 30.9999L44.3969 28.6625V24.906L47.351 23.1947L44.3969 21.4834V12.9269L49.2235 10.1303H62.4966V11.5495L58.7102 13.7616L61.2484 15.2642V21.0242L56.4218 23.8208H48.4329V27.3686H57.6701L62.4966 30.1651V36.7599L57.6701 39.5564H48.3913L43.5647 36.7599V34.1721L47.6007 31.8347V36.0086H58.4606V30.9999H48.4329ZM48.4329 13.6782V20.2729H57.2123V13.6782H48.4329ZM68.33 28.4121V10.1303H72.366V27.5773H81.9777V10.1303H86.0137V31.2086H82.9762L81.9777 29.4973L79.0234 31.2086H73.1566L68.33 28.4121ZM108.314 21.3999V28.2034L103.488 30.9999H92.6695V27.3686H104.278V22.2347H97.496L92.6695 19.4382V12.9269L97.496 10.1303H107.898V13.7616H96.7055V18.6034H103.488L108.314 21.3999ZM113.313 13.7616V10.1303H117.141V6.62427L121.177 4.28688V10.1303H126.17V13.7616H121.177V27.3686H126.17V30.9999H121.968L117.141 28.2034V13.7616H113.313ZM135.206 22.4434V27.5773H143.57V22.4434H135.206ZM135.997 31.2086L131.171 28.4121V21.6086L135.997 18.8121H143.57V13.7616H133.25V10.1303H142.78L147.605 12.9269V31.2086H146.524L143.57 29.4973L140.615 31.2086H135.997ZM155.726 10.1303L161.843 27.1599H161.926L168.084 10.1303H172.037L164.339 30.9999H159.471L151.773 10.1303H155.726ZM193.895 28.4121L189.069 31.2086H181.039L176.212 28.4121V12.7182L181.039 9.92167H189.069L193.895 12.7182V28.4121ZM180.248 13.5529V27.5773H189.86V13.5529H180.248ZM295.016 31.8347L304.836 0.947754H308.581L298.761 31.8347H295.016ZM313.563 14.0121V10.0886L334.367 18.4364V22.6938L313.563 31.0416V27.1182L330.332 20.6069V20.5234L313.563 14.0121Z" fill="#37474F"/>
<path d="M204.588 31.0001H200.551V0.530518H204.588V11.6331L207.542 9.92182H213.825L218.651 12.7184V31.0001H214.615V13.5531H204.588V31.0001ZM240.942 21.4001V28.2036L236.115 31.0001H225.297V27.3688H236.905V22.2349H230.124L225.297 19.4384V12.9271L230.124 10.1305H240.526V13.7618H229.333V18.6036H236.115L240.942 21.4001ZM252.432 9.92182H258.714L261.669 11.6331V0.530518H265.705V31.2088H262.668L261.669 29.4975L258.714 31.2088H252.432L247.605 28.4123V12.7184L252.432 9.92182ZM261.669 27.5775V13.5531H251.641V27.5775H261.669ZM285.624 31.2088H279.341L276.387 29.4975V39.3479H272.35V9.92182H275.388L276.387 11.6331L279.341 9.92182H285.624L290.451 12.7184V28.4123L285.624 31.2088ZM276.387 13.5531V27.5775H286.414V13.5531H276.387Z" fill="#04D361"/>
</svg>
